# Blender 4.1.1
# www.blender.org
mtllib fireFly.mtl
o Object_7
v 0.021908 0.230155 -0.103255
v 0.019597 0.230155 -0.132082
v 0.021908 0.215695 -0.103255
v 0.019597 0.215695 -0.132082
v 0.019583 0.230155 -0.132081
v 0.021894 0.230155 -0.103254
v 0.019583 0.215695 -0.132081
v 0.021894 0.215695 -0.103254
v 0.019583 0.230155 -0.132081
v 0.019597 0.230155 -0.132082
v 0.021894 0.230155 -0.103254
v 0.021908 0.230155 -0.103255
v 0.021894 0.215695 -0.103254
v 0.021908 0.215695 -0.103255
v 0.019583 0.215695 -0.132081
v 0.019597 0.215695 -0.132082
v 0.021894 0.230155 -0.103254
v 0.021908 0.230155 -0.103255
v 0.021894 0.215695 -0.103254
v 0.021908 0.215695 -0.103255
v 0.019597 0.230155 -0.132082
v 0.019583 0.230155 -0.132081
v 0.019597 0.215695 -0.132082
v 0.019583 0.215695 -0.132081
vn 0.9968 -0.0000 -0.0799
vn -0.9968 -0.0000 0.0799
vn -0.0000 1.0000 -0.0000
vn -0.0000 -1.0000 -0.0000
vn 0.0799 -0.0000 0.9968
vn -0.0799 -0.0000 -0.9968
vt 0.062744 0.890381
vt 0.062744 0.875244
vt 0.093506 0.890381
vt 0.093506 0.875244
vt 0.093994 0.890381
vt 0.093994 0.875244
vt 0.124756 0.890381
vt 0.124756 0.875244
vt 0.093994 0.890869
vt 0.093994 0.921631
vt 0.093506 0.890869
vt 0.093506 0.921631
vt 0.125244 0.890381
vt 0.125244 0.875244
s 0
usemtl material_0
f 1/1/1 3/2/1 2/3/1
f 3/2/1 4/4/1 2/3/1
f 5/5/2 7/6/2 6/7/2
f 7/6/2 8/8/2 6/7/2
f 9/9/3 11/10/3 10/11/3
f 11/10/3 12/12/3 10/11/3
f 13/10/4 15/9/4 14/12/4
f 15/9/4 16/11/4 14/12/4
f 17/13/5 19/14/5 18/7/5
f 19/14/5 20/8/5 18/7/5
f 21/5/6 23/6/6 22/3/6
f 23/6/6 24/4/6 22/3/6
o Object_9
v -0.035747 0.230155 -0.098632
v -0.038058 0.230155 -0.127460
v -0.035747 0.215695 -0.098632
v -0.038058 0.215695 -0.127460
v -0.038072 0.230155 -0.127459
v -0.035761 0.230155 -0.098631
v -0.038072 0.215695 -0.127459
v -0.035761 0.215695 -0.098631
v -0.038072 0.230155 -0.127459
v -0.038058 0.230155 -0.127460
v -0.035761 0.230155 -0.098631
v -0.035747 0.230155 -0.098632
v -0.035761 0.215695 -0.098631
v -0.035747 0.215695 -0.098632
v -0.038072 0.215695 -0.127459
v -0.038058 0.215695 -0.127460
v -0.035761 0.230155 -0.098631
v -0.035747 0.230155 -0.098632
v -0.035761 0.215695 -0.098631
v -0.035747 0.215695 -0.098632
v -0.038058 0.230155 -0.127460
v -0.038072 0.230155 -0.127459
v -0.038058 0.215695 -0.127460
v -0.038072 0.215695 -0.127459
vn 0.9968 -0.0000 -0.0799
vn -0.9968 -0.0000 0.0799
vn -0.0000 1.0000 -0.0000
vn -0.0000 -1.0000 -0.0000
vn 0.0799 -0.0000 0.9968
vn -0.0799 -0.0000 -0.9968
vt 0.000244 0.890381
vt 0.000244 0.875244
vt 0.031006 0.890381
vt 0.031006 0.875244
vt 0.031494 0.890381
vt 0.031494 0.875244
vt 0.062256 0.890381
vt 0.062256 0.875244
vt 0.031494 0.890869
vt 0.031494 0.921631
vt 0.031006 0.890869
vt 0.031006 0.921631
vt 0.062744 0.890381
vt 0.062744 0.875244
s 0
usemtl material_0
f 25/15/7 27/16/7 26/17/7
f 27/16/7 28/18/7 26/17/7
f 29/19/8 31/20/8 30/21/8
f 31/20/8 32/22/8 30/21/8
f 33/23/9 35/24/9 34/25/9
f 35/24/9 36/26/9 34/25/9
f 37/24/10 39/23/10 38/26/10
f 39/23/10 40/25/10 38/26/10
f 41/27/11 43/28/11 42/21/11
f 43/28/11 44/22/11 42/21/11
f 45/19/12 47/20/12 46/17/12
f 47/20/12 48/18/12 46/17/12
o Object_11
v -0.038058 0.244615 -0.127460
v -0.040369 0.244615 -0.156287
v -0.038058 0.230155 -0.127460
v -0.040369 0.230155 -0.156287
v -0.040383 0.244615 -0.156286
v -0.038072 0.244615 -0.127459
v -0.040383 0.230155 -0.156286
v -0.038072 0.230155 -0.127459
v -0.040383 0.244615 -0.156286
v -0.040369 0.244615 -0.156287
v -0.038072 0.244615 -0.127459
v -0.038058 0.244615 -0.127460
v -0.038072 0.230155 -0.127459
v -0.038058 0.230155 -0.127460
v -0.040383 0.230155 -0.156286
v -0.040369 0.230155 -0.156287
v -0.038072 0.244615 -0.127459
v -0.038058 0.244615 -0.127460
v -0.038072 0.230155 -0.127459
v -0.038058 0.230155 -0.127460
v -0.040369 0.244615 -0.156287
v -0.040383 0.244615 -0.156286
v -0.040369 0.230155 -0.156287
v -0.040383 0.230155 -0.156286
vn 0.9968 -0.0000 -0.0799
vn -0.9968 -0.0000 0.0799
vn -0.0000 1.0000 -0.0000
vn -0.0000 -1.0000 -0.0000
vn 0.0799 -0.0000 0.9968
vn -0.0799 -0.0000 -0.9968
vt 0.062744 0.906006
vt 0.062744 0.890869
vt 0.093506 0.906006
vt 0.093506 0.890869
vt 0.093994 0.906006
vt 0.093994 0.890869
vt 0.124756 0.906006
vt 0.124756 0.890869
vt 0.093994 0.906494
vt 0.093994 0.937256
vt 0.093506 0.906494
vt 0.093506 0.937256
vt 0.125244 0.906006
vt 0.125244 0.890869
s 0
usemtl material_0
f 49/29/13 51/30/13 50/31/13
f 51/30/13 52/32/13 50/31/13
f 53/33/14 55/34/14 54/35/14
f 55/34/14 56/36/14 54/35/14
f 57/37/15 59/38/15 58/39/15
f 59/38/15 60/40/15 58/39/15
f 61/38/16 63/37/16 62/40/16
f 63/37/16 64/39/16 62/40/16
f 65/41/17 67/42/17 66/35/17
f 67/42/17 68/36/17 66/35/17
f 69/33/18 71/34/18 70/31/18
f 71/34/18 72/32/18 70/31/18
o Object_13
v 0.019597 0.244615 -0.132082
v 0.017286 0.244615 -0.160910
v 0.019597 0.230155 -0.132082
v 0.017286 0.230155 -0.160910
v 0.017271 0.244615 -0.160909
v 0.019583 0.244615 -0.132081
v 0.017271 0.230155 -0.160909
v 0.019583 0.230155 -0.132081
v 0.017271 0.244615 -0.160909
v 0.017286 0.244615 -0.160910
v 0.019583 0.244615 -0.132081
v 0.019597 0.244615 -0.132082
v 0.019583 0.230155 -0.132081
v 0.019597 0.230155 -0.132082
v 0.017271 0.230155 -0.160909
v 0.017286 0.230155 -0.160910
v 0.019583 0.244615 -0.132081
v 0.019597 0.244615 -0.132082
v 0.019583 0.230155 -0.132081
v 0.019597 0.230155 -0.132082
v 0.017286 0.244615 -0.160910
v 0.017271 0.244615 -0.160909
v 0.017286 0.230155 -0.160910
v 0.017271 0.230155 -0.160909
vn 0.9968 -0.0000 -0.0799
vn -0.9968 -0.0000 0.0799
vn -0.0000 1.0000 -0.0000
vn -0.0000 -1.0000 -0.0000
vn 0.0799 -0.0000 0.9968
vn -0.0799 -0.0000 -0.9968
vt 0.000244 0.906006
vt 0.000244 0.890869
vt 0.031006 0.906006
vt 0.031006 0.890869
vt 0.031494 0.906006
vt 0.031494 0.890869
vt 0.062256 0.906006
vt 0.062256 0.890869
vt 0.031494 0.906494
vt 0.031494 0.937256
vt 0.031006 0.906494
vt 0.031006 0.937256
vt 0.062744 0.906006
vt 0.062744 0.890869
s 0
usemtl material_0
f 73/43/19 75/44/19 74/45/19
f 75/44/19 76/46/19 74/45/19
f 77/47/20 79/48/20 78/49/20
f 79/48/20 80/50/20 78/49/20
f 81/51/21 83/52/21 82/53/21
f 83/52/21 84/54/21 82/53/21
f 85/52/22 87/51/22 86/54/22
f 87/51/22 88/53/22 86/54/22
f 89/55/23 91/56/23 90/49/23
f 91/56/23 92/50/23 90/49/23
f 93/47/24 95/48/24 94/45/24
f 95/48/24 96/46/24 94/45/24
o Object_17
v 0.123826 0.279246 0.000536
v 0.103807 0.235818 -0.053691
v 0.128545 0.267780 0.007976
v 0.108526 0.224352 -0.046250
v 0.025395 0.226942 -0.017635
v 0.045414 0.270370 0.036591
v 0.030114 0.215476 -0.010195
v 0.050133 0.258905 0.044032
v 0.025395 0.226942 -0.017635
v 0.103807 0.235818 -0.053691
v 0.045414 0.270370 0.036591
v 0.123826 0.279246 0.000536
v 0.050133 0.258905 0.044032
v 0.128545 0.267780 0.007976
v 0.030114 0.215476 -0.010195
v 0.108526 0.224352 -0.046250
v 0.045414 0.270370 0.036591
v 0.123826 0.279246 0.000536
v 0.050133 0.258905 0.044032
v 0.128545 0.267780 0.007976
v 0.103807 0.235818 -0.053691
v 0.025395 0.226942 -0.017635
v 0.108526 0.224352 -0.046250
v 0.030114 0.215476 -0.010195
vn 0.9038 0.1023 -0.4156
vn -0.9038 -0.1023 0.4156
vn -0.3264 0.7929 -0.5146
vn 0.3264 -0.7929 0.5146
vn 0.2769 0.6007 0.7500
vn -0.2769 -0.6007 -0.7500
vt 0.500244 0.827881
vt 0.500244 0.812744
vt 0.577881 0.827881
vt 0.577881 0.812744
vt 0.672119 0.827881
vt 0.672119 0.812744
vt 0.749756 0.827881
vt 0.749756 0.812744
vt 0.671631 0.828369
vt 0.671631 0.906006
vt 0.578369 0.828369
vt 0.578369 0.906006
vt 0.765381 0.906006
vt 0.765381 0.828369
vt 0.672119 0.906006
vt 0.672119 0.828369
vt 0.750244 0.827881
vt 0.750244 0.812744
vt 0.843506 0.827881
vt 0.843506 0.812744
vt 0.578369 0.827881
vt 0.578369 0.812744
vt 0.671631 0.827881
vt 0.671631 0.812744
s 0
usemtl material_0
f 97/57/25 99/58/25 98/59/25
f 99/58/25 100/60/25 98/59/25
f 101/61/26 103/62/26 102/63/26
f 103/62/26 104/64/26 102/63/26
f 105/65/27 107/66/27 106/67/27
f 107/66/27 108/68/27 106/67/27
f 109/69/28 111/70/28 110/71/28
f 111/70/28 112/72/28 110/71/28
f 113/73/29 115/74/29 114/75/29
f 115/74/29 116/76/29 114/75/29
f 117/77/30 119/78/30 118/79/30
f 119/78/30 120/80/30 118/79/30
o Object_20
v -0.036700 0.270370 0.043175
v -0.025576 0.226942 -0.013549
v -0.040173 0.258905 0.051272
v -0.029050 0.215476 -0.005451
v -0.108732 0.235818 -0.036651
v -0.119855 0.279246 0.020073
v -0.112205 0.224352 -0.028553
v -0.123329 0.267780 0.028170
v -0.108732 0.235818 -0.036651
v -0.025576 0.226942 -0.013549
v -0.119855 0.279246 0.020073
v -0.036700 0.270370 0.043175
v -0.123329 0.267780 0.028170
v -0.040173 0.258905 0.051272
v -0.112205 0.224352 -0.028553
v -0.029050 0.215476 -0.005451
v -0.119855 0.279246 0.020073
v -0.036700 0.270370 0.043175
v -0.123329 0.267780 0.028170
v -0.040173 0.258905 0.051272
v -0.025576 0.226942 -0.013549
v -0.108732 0.235818 -0.036651
v -0.029050 0.215476 -0.005451
v -0.112205 0.224352 -0.028553
vn 0.9585 -0.1023 0.2663
vn -0.9585 0.1023 -0.2663
vn 0.2402 0.7929 -0.5600
vn -0.2402 -0.7929 0.5600
vn -0.1539 0.6007 0.7846
vn 0.1539 -0.6007 -0.7846
vt 0.000244 0.484131
vt 0.000244 0.468994
vt 0.077881 0.484131
vt 0.077881 0.468994
vt 0.172119 0.484131
vt 0.172119 0.468994
vt 0.249756 0.484131
vt 0.249756 0.468994
vt 0.171631 0.484619
vt 0.171631 0.562256
vt 0.078369 0.484619
vt 0.078369 0.562256
vt 0.265381 0.562256
vt 0.265381 0.484619
vt 0.172119 0.562256
vt 0.172119 0.484619
vt 0.250244 0.484131
vt 0.250244 0.468994
vt 0.343506 0.484131
vt 0.343506 0.468994
vt 0.078369 0.484131
vt 0.078369 0.468994
vt 0.171631 0.484131
vt 0.171631 0.468994
s 0
usemtl material_0
f 121/81/31 123/82/31 122/83/31
f 123/82/31 124/84/31 122/83/31
f 125/85/32 127/86/32 126/87/32
f 127/86/32 128/88/32 126/87/32
f 129/89/33 131/90/33 130/91/33
f 131/90/33 132/92/33 130/91/33
f 133/93/34 135/94/34 134/95/34
f 135/94/34 136/96/34 134/95/34
f 137/97/35 139/98/35 138/99/35
f 139/98/35 140/100/35 138/99/35
f 141/101/36 143/102/36 142/103/36
f 143/102/36 144/104/36 142/103/36
o Object_23
v 0.042086 0.244615 -0.032341
v 0.035152 0.244615 -0.118823
v 0.042086 0.157855 -0.032341
v 0.035152 0.157855 -0.118823
v -0.051330 0.244615 -0.111889
v -0.044397 0.244615 -0.025407
v -0.051330 0.157855 -0.111889
v -0.044397 0.157855 -0.025407
v -0.051330 0.244615 -0.111889
v 0.035152 0.244615 -0.118823
v -0.044397 0.244615 -0.025407
v 0.042086 0.244615 -0.032341
v -0.044397 0.157855 -0.025407
v 0.042086 0.157855 -0.032341
v -0.051330 0.157855 -0.111889
v 0.035152 0.157855 -0.118823
v -0.044397 0.244615 -0.025407
v 0.042086 0.244615 -0.032341
v -0.044397 0.157855 -0.025407
v 0.042086 0.157855 -0.032341
v 0.035152 0.244615 -0.118823
v -0.051330 0.244615 -0.111889
v 0.035152 0.157855 -0.118823
v -0.051330 0.157855 -0.111889
vn 0.9968 -0.0000 -0.0799
vn -0.9968 -0.0000 0.0799
vn -0.0000 1.0000 -0.0000
vn -0.0000 -1.0000 -0.0000
vn 0.0799 -0.0000 0.9968
vn -0.0799 -0.0000 -0.9968
vt 0.000244 0.656006
vt 0.000244 0.562744
vt 0.093506 0.656006
vt 0.093506 0.562744
vt 0.187744 0.656006
vt 0.187744 0.562744
vt 0.281006 0.656006
vt 0.281006 0.562744
vt 0.187256 0.656494
vt 0.187256 0.749756
vt 0.093994 0.656494
vt 0.093994 0.749756
vt 0.281006 0.749756
vt 0.281006 0.656494
vt 0.187744 0.749756
vt 0.187744 0.656494
vt 0.281494 0.656006
vt 0.281494 0.562744
vt 0.374756 0.656006
vt 0.374756 0.562744
vt 0.093994 0.656006
vt 0.093994 0.562744
vt 0.187256 0.656006
vt 0.187256 0.562744
s 0
usemtl material_0
f 145/105/37 147/106/37 146/107/37
f 147/106/37 148/108/37 146/107/37
f 149/109/38 151/110/38 150/111/38
f 151/110/38 152/112/38 150/111/38
f 153/113/39 155/114/39 154/115/39
f 155/114/39 156/116/39 154/115/39
f 157/117/40 159/118/40 158/119/40
f 159/118/40 160/120/40 158/119/40
f 161/121/41 163/122/41 162/123/41
f 163/122/41 164/124/41 162/123/41
f 165/125/42 167/126/42 166/127/42
f 167/126/42 168/128/42 166/127/42
o Object_26
v 0.029672 0.137800 -0.006239
v 0.029671 0.137801 -0.006253
v 0.029571 0.108908 -0.007496
v 0.029570 0.108908 -0.007511
v -0.027984 0.137801 -0.001631
v -0.027983 0.137800 -0.001616
v -0.028085 0.108908 -0.002888
v -0.028084 0.108908 -0.002874
v -0.027984 0.137801 -0.001631
v 0.029671 0.137801 -0.006253
v -0.027983 0.137800 -0.001616
v 0.029672 0.137800 -0.006239
v -0.028084 0.108908 -0.002874
v 0.029571 0.108908 -0.007496
v -0.028085 0.108908 -0.002888
v 0.029570 0.108908 -0.007511
v -0.027983 0.137800 -0.001616
v 0.029672 0.137800 -0.006239
v -0.028084 0.108908 -0.002874
v 0.029571 0.108908 -0.007496
v 0.029671 0.137801 -0.006253
v -0.027984 0.137801 -0.001631
v 0.029570 0.108908 -0.007511
v -0.028085 0.108908 -0.002888
vn 0.9968 -0.0000 -0.0799
vn -0.9968 -0.0000 0.0799
vn 0.0035 0.9990 0.0435
vn -0.0035 -0.9990 -0.0435
vn 0.0798 -0.0436 0.9959
vn -0.0798 0.0436 -0.9959
vt 0.000244 0.999756
vt 0.000244 0.968994
vt -0.000244 0.999756
vt -0.000244 0.968994
vt 0.062744 0.999756
vt 0.062744 0.968994
vt 0.062256 0.999756
vt 0.062256 0.968994
vt 0.062256 1.000244
vt 0.000244 1.000244
vt 0.124756 0.999756
vt 0.124756 1.000244
vt 0.062744 1.000244
vt 0.124756 0.968994
s 0
usemtl material_0
f 169/129/43 171/130/43 170/131/43
f 171/130/43 172/132/43 170/131/43
f 173/133/44 175/134/44 174/135/44
f 175/134/44 176/136/44 174/135/44
f 177/135/45 179/137/45 178/129/45
f 179/137/45 180/138/45 178/129/45
f 181/139/46 183/140/46 182/133/46
f 183/140/46 184/141/46 182/133/46
f 185/133/47 187/134/47 186/139/47
f 187/134/47 188/142/47 186/139/47
f 189/129/48 191/130/48 190/135/48
f 191/130/48 192/136/48 190/135/48
o Object_28
v 0.033780 0.194661 0.045001
v 0.027374 0.227862 -0.034898
v 0.031569 0.127864 0.017421
v 0.025163 0.161066 -0.062478
v -0.030281 0.227862 -0.030276
v -0.023875 0.194661 0.049623
v -0.032492 0.161066 -0.057856
v -0.026086 0.127864 0.022044
v -0.030281 0.227862 -0.030276
v 0.027374 0.227862 -0.034898
v -0.023875 0.194661 0.049623
v 0.033780 0.194661 0.045001
v -0.026086 0.127864 0.022044
v 0.031569 0.127864 0.017421
v -0.032492 0.161066 -0.057856
v 0.025163 0.161066 -0.062478
v -0.023875 0.194661 0.049623
v 0.033780 0.194661 0.045001
v -0.026086 0.127864 0.022044
v 0.031569 0.127864 0.017421
v 0.027374 0.227862 -0.034898
v -0.030281 0.227862 -0.030276
v 0.025163 0.161066 -0.062478
v -0.032492 0.161066 -0.057856
vn 0.9968 -0.0000 -0.0799
vn -0.9968 -0.0000 0.0799
vn 0.0306 0.9239 0.3815
vn -0.0306 -0.9239 -0.3815
vn 0.0738 -0.3827 0.9209
vn -0.0738 0.3827 -0.9209
vt 0.281494 0.562256
vt 0.281494 0.484619
vt 0.374756 0.562256
vt 0.374756 0.484619
vt 0.437744 0.562256
vt 0.437744 0.484619
vt 0.531006 0.562256
vt 0.531006 0.484619
vt 0.437256 0.562744
vt 0.437256 0.656006
vt 0.375244 0.562744
vt 0.375244 0.656006
vt 0.499756 0.656006
vt 0.499756 0.562744
vt 0.437744 0.656006
vt 0.437744 0.562744
vt 0.531494 0.562256
vt 0.531494 0.484619
vt 0.593506 0.562256
vt 0.593506 0.484619
vt 0.375244 0.562256
vt 0.375244 0.484619
vt 0.437256 0.562256
vt 0.437256 0.484619
s 0
usemtl material_0
f 193/143/49 195/144/49 194/145/49
f 195/144/49 196/146/49 194/145/49
f 197/147/50 199/148/50 198/149/50
f 199/148/50 200/150/50 198/149/50
f 201/151/51 203/152/51 202/153/51
f 203/152/51 204/154/51 202/153/51
f 205/155/52 207/156/52 206/157/52
f 207/156/52 208/158/52 206/157/52
f 209/159/53 211/160/53 210/161/53
f 211/160/53 212/162/53 210/161/53
f 213/163/54 215/164/54 214/165/54
f 215/164/54 216/166/54 214/165/54
o Object_30
v 0.071224 0.184876 0.150169
v 0.062683 0.229144 0.043636
v 0.067687 0.078001 0.106041
v 0.059145 0.122270 -0.000491
v -0.052627 0.229144 0.052881
v -0.044086 0.184876 0.159413
v -0.056164 0.122270 0.008754
v -0.047623 0.078001 0.115286
v -0.052627 0.229144 0.052881
v 0.062683 0.229144 0.043636
v -0.044086 0.184876 0.159413
v 0.071224 0.184876 0.150169
v -0.047623 0.078001 0.115286
v 0.067687 0.078001 0.106041
v -0.056164 0.122270 0.008754
v 0.059145 0.122270 -0.000491
v -0.044086 0.184876 0.159413
v 0.071224 0.184876 0.150169
v -0.047623 0.078001 0.115286
v 0.067687 0.078001 0.106041
v 0.062683 0.229144 0.043636
v -0.052627 0.229144 0.052881
v 0.059145 0.122270 -0.000491
v -0.056164 0.122270 0.008754
vn 0.9968 -0.0000 -0.0799
vn -0.9968 -0.0000 0.0799
vn 0.0306 0.9239 0.3815
vn -0.0306 -0.9239 -0.3815
vn 0.0738 -0.3827 0.9209
vn -0.0738 0.3827 -0.9209
vt 0.000244 0.874756
vt 0.000244 0.750244
vt 0.124756 0.874756
vt 0.124756 0.750244
vt 0.250244 0.874756
vt 0.250244 0.750244
vt 0.374756 0.874756
vt 0.374756 0.750244
vt 0.249756 0.875244
vt 0.249756 0.999756
vt 0.125244 0.875244
vt 0.125244 0.999756
vt 0.374756 0.999756
vt 0.374756 0.875244
vt 0.250244 0.999756
vt 0.250244 0.875244
vt 0.375244 0.874756
vt 0.375244 0.750244
vt 0.499756 0.874756
vt 0.499756 0.750244
vt 0.125244 0.874756
vt 0.125244 0.750244
vt 0.249756 0.874756
vt 0.249756 0.750244
s 0
usemtl material_0
f 217/167/55 219/168/55 218/169/55
f 219/168/55 220/170/55 218/169/55
f 221/171/56 223/172/56 222/173/56
f 223/172/56 224/174/56 222/173/56
f 225/175/57 227/176/57 226/177/57
f 227/176/57 228/178/57 226/177/57
f 229/179/58 231/180/58 230/181/58
f 231/180/58 232/182/58 230/181/58
f 233/183/59 235/184/59 234/185/59
f 235/184/59 236/186/59 234/185/59
f 237/187/60 239/188/60 238/189/60
f 239/188/60 240/190/60 238/189/60
o Object_33
v 0.026462 0.154714 -0.046282
v 0.026460 0.154715 -0.046296
v 0.026361 0.125822 -0.047539
v 0.026360 0.125823 -0.047553
v -0.031195 0.154715 -0.041674
v -0.031193 0.154714 -0.041659
v -0.031295 0.125823 -0.042931
v -0.031294 0.125822 -0.042917
v -0.031195 0.154715 -0.041674
v 0.026460 0.154715 -0.046296
v -0.031193 0.154714 -0.041659
v 0.026462 0.154714 -0.046282
v -0.031294 0.125822 -0.042917
v 0.026361 0.125822 -0.047539
v -0.031295 0.125823 -0.042931
v 0.026360 0.125823 -0.047553
v -0.031193 0.154714 -0.041659
v 0.026462 0.154714 -0.046282
v -0.031294 0.125822 -0.042917
v 0.026361 0.125822 -0.047539
v 0.026460 0.154715 -0.046296
v -0.031195 0.154715 -0.041674
v 0.026360 0.125823 -0.047553
v -0.031295 0.125823 -0.042931
vn 0.9968 -0.0000 -0.0799
vn -0.9968 -0.0000 0.0799
vn 0.0035 0.9990 0.0435
vn -0.0035 -0.9990 -0.0435
vn 0.0798 -0.0436 0.9959
vn -0.0798 0.0436 -0.9959
vt 0.000244 0.937256
vt 0.000244 0.906494
vt -0.000244 0.937256
vt -0.000244 0.906494
vt 0.062744 0.937256
vt 0.062744 0.906494
vt 0.062256 0.937256
vt 0.062256 0.906494
vt 0.062256 0.937744
vt 0.000244 0.937744
vt 0.124756 0.937256
vt 0.124756 0.937744
vt 0.062744 0.937744
vt 0.124756 0.906494
s 0
usemtl material_0
f 241/191/61 243/192/61 242/193/61
f 243/192/61 244/194/61 242/193/61
f 245/195/62 247/196/62 246/197/62
f 247/196/62 248/198/62 246/197/62
f 249/197/63 251/199/63 250/191/63
f 251/199/63 252/200/63 250/191/63
f 253/201/64 255/202/64 254/195/64
f 255/202/64 256/203/64 254/195/64
f 257/195/65 259/196/65 258/201/65
f 259/196/65 260/204/65 258/201/65
f 261/191/66 263/192/66 262/197/66
f 263/192/66 264/198/66 262/197/66
o Object_35
v 0.028077 0.146124 -0.026133
v 0.028076 0.146124 -0.026147
v 0.027976 0.117231 -0.027390
v 0.027975 0.117232 -0.027405
v -0.029579 0.146124 -0.021525
v -0.029578 0.146124 -0.021510
v -0.029680 0.117232 -0.022782
v -0.029679 0.117231 -0.022768
v -0.029579 0.146124 -0.021525
v 0.028076 0.146124 -0.026147
v -0.029578 0.146124 -0.021510
v 0.028077 0.146124 -0.026133
v -0.029679 0.117231 -0.022768
v 0.027976 0.117231 -0.027390
v -0.029680 0.117232 -0.022782
v 0.027975 0.117232 -0.027405
v -0.029578 0.146124 -0.021510
v 0.028077 0.146124 -0.026133
v -0.029679 0.117231 -0.022768
v 0.027976 0.117231 -0.027390
v 0.028076 0.146124 -0.026147
v -0.029579 0.146124 -0.021525
v 0.027975 0.117232 -0.027405
v -0.029680 0.117232 -0.022782
vn 0.9968 -0.0000 -0.0799
vn -0.9968 -0.0000 0.0799
vn 0.0035 0.9990 0.0435
vn -0.0035 -0.9990 -0.0435
vn 0.0798 -0.0436 0.9959
vn -0.0798 0.0436 -0.9959
vt 0.000244 0.968506
vt 0.000244 0.937744
vt -0.000244 0.968506
vt -0.000244 0.937744
vt 0.062744 0.968506
vt 0.062744 0.937744
vt 0.062256 0.968506
vt 0.062256 0.937744
vt 0.062256 0.968994
vt 0.000244 0.968994
vt 0.124756 0.968506
vt 0.124756 0.968994
vt 0.062744 0.968994
vt 0.124756 0.937744
s 0
usemtl material_0
f 265/205/67 267/206/67 266/207/67
f 267/206/67 268/208/67 266/207/67
f 269/209/68 271/210/68 270/211/68
f 271/210/68 272/212/68 270/211/68
f 273/211/69 275/213/69 274/205/69
f 275/213/69 276/214/69 274/205/69
f 277/215/70 279/216/70 278/209/70
f 279/216/70 280/217/70 278/209/70
f 281/209/71 283/210/71 282/215/71
f 283/210/71 284/218/71 282/215/71
f 285/205/72 287/206/72 286/211/72
f 287/206/72 288/212/72 286/211/72
o Object_38
v 0.111623 0.156815 0.035317
v 0.112831 0.181697 -0.047789
v 0.111619 0.156802 0.035313
v 0.112826 0.181684 -0.047793
v 0.016604 0.212134 -0.040075
v 0.015397 0.187252 0.043032
v 0.016600 0.212121 -0.040079
v 0.015392 0.187239 0.043028
v 0.016604 0.212134 -0.040075
v 0.112831 0.181697 -0.047789
v 0.015397 0.187252 0.043032
v 0.111623 0.156815 0.035317
v 0.015392 0.187239 0.043028
v 0.111619 0.156802 0.035313
v 0.016600 0.212121 -0.040079
v 0.112826 0.181684 -0.047793
v 0.015397 0.187252 0.043032
v 0.111623 0.156815 0.035317
v 0.015392 0.187239 0.043028
v 0.111619 0.156802 0.035313
v 0.112831 0.181697 -0.047789
v 0.016604 0.212134 -0.040075
v 0.112826 0.181684 -0.047793
v 0.016600 0.212121 -0.040079
vn 0.9507 -0.3007 -0.0762
vn -0.9507 0.3007 0.0762
vn 0.3099 0.9096 0.2768
vn -0.3099 -0.9096 -0.2768
vn -0.0139 -0.2868 0.9579
vn 0.0139 0.2868 -0.9579
vt 0.281494 0.906006
vt 0.281494 0.906494
vt 0.374756 0.906006
vt 0.374756 0.906494
vt 0.484619 0.906006
vt 0.484619 0.906494
vt 0.577881 0.906006
vt 0.577881 0.906494
vt 0.484131 0.906494
vt 0.484131 0.999756
vt 0.375244 0.906494
vt 0.375244 0.999756
vt 0.593506 0.999756
vt 0.593506 0.906494
vt 0.484619 0.999756
vt 0.578369 0.906006
vt 0.578369 0.906494
vt 0.687256 0.906006
vt 0.687256 0.906494
vt 0.375244 0.906006
vt 0.484131 0.906006
s 0
usemtl material_0
f 289/219/73 291/220/73 290/221/73
f 291/220/73 292/222/73 290/221/73
f 293/223/74 295/224/74 294/225/74
f 295/224/74 296/226/74 294/225/74
f 297/227/75 299/228/75 298/229/75
f 299/228/75 300/230/75 298/229/75
f 301/231/76 303/232/76 302/233/76
f 303/232/76 304/224/76 302/233/76
f 305/234/77 307/235/77 306/236/77
f 307/235/77 308/237/77 306/236/77
f 309/238/78 311/229/78 310/239/78
f 311/229/78 312/227/78 310/239/78
o Object_41
v -0.006040 0.187252 0.044751
v -0.020473 0.212134 -0.037102
v -0.006037 0.187239 0.044746
v -0.020469 0.212121 -0.037107
v -0.116700 0.181697 -0.029387
v -0.102267 0.156815 0.052466
v -0.116696 0.181684 -0.029392
v -0.102263 0.156802 0.052461
v -0.116700 0.181697 -0.029387
v -0.020473 0.212134 -0.037102
v -0.102267 0.156815 0.052466
v -0.006040 0.187252 0.044751
v -0.102263 0.156802 0.052461
v -0.006037 0.187239 0.044746
v -0.116696 0.181684 -0.029392
v -0.020469 0.212121 -0.037107
v -0.102267 0.156815 0.052466
v -0.006040 0.187252 0.044751
v -0.102263 0.156802 0.052461
v -0.006037 0.187239 0.044746
v -0.020473 0.212134 -0.037102
v -0.116700 0.181697 -0.029387
v -0.020469 0.212121 -0.037107
v -0.116696 0.181684 -0.029392
vn 0.9507 0.3007 -0.0762
vn -0.9507 -0.3007 0.0762
vn -0.2618 0.9096 0.3227
vn 0.2618 -0.9096 -0.3227
vn 0.1664 -0.2868 0.9434
vn -0.1664 0.2868 -0.9434
vt 0.187744 0.656006
vt 0.187744 0.656494
vt 0.281006 0.656006
vt 0.281006 0.656494
vt 0.390869 0.656006
vt 0.390869 0.656494
vt 0.484131 0.656006
vt 0.484131 0.656494
vt 0.390381 0.656494
vt 0.390381 0.749756
vt 0.281494 0.656494
vt 0.281494 0.749756
vt 0.499756 0.749756
vt 0.499756 0.656494
vt 0.390869 0.749756
vt 0.484619 0.656006
vt 0.484619 0.656494
vt 0.593506 0.656006
vt 0.593506 0.656494
vt 0.281494 0.656006
vt 0.390381 0.656006
s 0
usemtl material_0
f 313/240/79 315/241/79 314/242/79
f 315/241/79 316/243/79 314/242/79
f 317/244/80 319/245/80 318/246/80
f 319/245/80 320/247/80 318/246/80
f 321/248/81 323/249/81 322/250/81
f 323/249/81 324/251/81 322/250/81
f 325/252/82 327/253/82 326/254/82
f 327/253/82 328/245/82 326/254/82
f 329/255/83 331/256/83 330/257/83
f 331/256/83 332/258/83 330/257/83
f 333/259/84 335/250/84 334/260/84
f 335/250/84 336/248/84 334/260/84
